<svg width="525" height="124" viewBox="0 0 525 124" fill="none" xmlns="http://www.w3.org/2000/svg">
<path d="M490.407 17.7969C498.818 17.7969 505.539 20.1058 510.569 24.7237C515.682 29.3415 518.238 35.6498 518.238 43.6486C518.238 51.9772 515.599 58.2443 510.322 62.4498C505.044 66.6554 498.035 68.7582 489.294 68.7582L488.799 78.5298H476.554L475.935 59.1102H480.017C488.016 59.1102 494.118 58.0382 498.324 55.8942C502.612 53.7502 504.756 49.6683 504.756 43.6486C504.756 39.2782 503.478 35.856 500.921 33.3821C498.447 30.9083 494.984 29.6714 490.531 29.6714C486.078 29.6714 482.574 30.8671 480.017 33.2585C477.461 35.6498 476.183 38.9895 476.183 43.2775H462.948C462.948 38.3298 464.061 33.9182 466.287 30.0425C468.514 26.1668 471.689 23.1569 475.812 21.0129C480.017 18.8689 484.882 17.7969 490.407 17.7969ZM482.491 105.866C479.935 105.866 477.791 105 476.059 103.268C474.327 101.537 473.462 99.3926 473.462 96.8363C473.462 94.28 474.327 92.136 476.059 90.4043C477.791 88.6726 479.935 87.8068 482.491 87.8068C484.965 87.8068 487.068 88.6726 488.799 90.4043C490.531 92.136 491.397 94.28 491.397 96.8363C491.397 99.3926 490.531 101.537 488.799 103.268C487.068 105 484.965 105.866 482.491 105.866Z" fill="url(#paint0_linear_963_4)" fill-opacity="0.95"/>
<path d="M0 18.8342C0 21.9016 1.0878 22.6685 5.439 22.6685C9.7902 22.6685 10.878 21.9016 10.878 18.8342C10.878 15.7668 9.7902 15 5.439 15C1.0878 15 0 15.7668 0 18.8342Z" fill="#272727"/>
<path d="M136.55 33.4425C128.469 38.427 125.672 44.5618 124.584 58.9403C122.875 79.8369 124.895 92.49 130.955 100.734L136.084 107.635H162.812H189.541L194.825 100.542C201.662 91.3397 201.818 85.5883 195.446 85.5883C192.494 85.5883 190.784 86.5469 190.784 88.2723C190.784 95.1739 184.568 97.0911 162.812 97.0911C134.219 97.0911 134.84 97.6662 134.84 69.2927V47.4375L139.502 44.3701C146.185 40.1524 181.616 40.3442 186.899 44.5618C189.075 46.2872 190.784 49.3546 190.784 51.2718C190.784 53.9557 191.872 54.9143 195.446 54.9143C199.331 54.9143 200.108 54.1475 200.108 50.3132C200.108 44.1784 194.514 35.9348 188.298 32.6757C180.217 28.458 143.387 29.0331 136.55 33.4425Z" fill="#272727"/>
<path d="M217.668 32.8673C208.655 37.6601 206.324 45.3286 206.324 69.2927C206.324 87.1219 206.79 91.3396 209.432 96.7075C214.716 107.252 220.621 108.977 247.194 108.21L270.349 107.635L275.633 100.542L280.916 93.2567V70.4429C280.916 57.7899 280.139 45.3286 279.207 42.8363C278.274 40.1524 274.856 36.3181 271.592 34.0176C266.309 30.375 263.356 29.9916 244.242 29.9916C229.168 30.1833 221.087 30.9502 217.668 32.8673ZM268.484 45.3286C271.126 48.5877 271.592 51.6551 271.592 68.9092C271.592 97.6661 272.214 97.091 244.863 97.091C224.351 97.091 222.641 96.7075 219.222 92.8733C215.959 89.039 215.648 87.1219 215.648 69.4844C215.648 52.422 215.959 49.9297 219.067 45.9037C222.175 41.6861 223.418 41.4943 243.931 41.4943C263.356 41.4943 265.687 41.8778 268.484 45.3286Z" fill="#272727"/>
<path d="M299.564 35.7432C305.003 41.3028 305.003 41.3028 326.138 41.4946C345.252 41.4946 347.738 41.878 351.468 45.5205C355.353 49.3548 355.508 50.1216 355.508 69.4846C355.508 97.858 356.441 97.0912 323.651 97.0912H298.166L297.699 69.1012C297.233 42.4531 297.078 40.9194 293.814 38.0437L290.24 35.3598V72.1686V108.786L321.942 108.211C351.002 107.635 353.954 107.252 357.062 103.801C363.589 96.516 364.832 90.7647 364.832 68.9094C364.832 52.0387 364.211 47.0542 361.88 42.2614C356.596 31.5255 351.312 29.9918 321.009 29.9918L294.125 30.1835L299.564 35.7432Z" fill="#272727"/>
<path d="M372.602 69.2932V108.594H408.344H444.086V102.843V97.0915H413.006H381.77L382.236 85.9722L382.703 75.0446L409.587 74.4694L436.471 74.086L436.005 68.718L435.539 63.5418L408.81 62.9667L381.926 62.5832V52.0391V41.4949H413.006H444.086V35.7435V29.9921H408.344H372.602V69.2932Z" fill="#272727"/>
<path d="M1 69.301V108.602H4.885H8.77V69.301V29.9999H4.885H1V69.301Z" fill="url(#paint1_linear_963_4)"/>
<path d="M19.6484 69.301V108.602H24.3104H28.817L29.2832 78.8866L29.7494 49.1712L46.9988 67.0004C56.4782 76.5861 67.0454 87.1303 70.3088 90.3894C73.5722 93.4568 78.8558 99.0164 81.9638 102.276C85.2272 106.11 89.2676 108.602 91.754 108.602C97.97 108.602 96.8822 103.042 89.2676 94.7988C77.3018 82.1457 37.9856 42.4612 34.5668 39.5855C32.5466 38.0518 29.9048 35.1762 28.3508 33.259C26.7968 31.5336 24.3104 29.9999 22.601 29.9999C19.8038 29.9999 19.6484 31.7253 19.6484 69.301Z" fill="url(#paint2_linear_963_4)"/>
<path d="M84.916 55.4979C84.916 80.9957 84.916 80.9957 89.2672 86.1719C91.5982 89.0476 94.0846 91.3481 94.7062 91.3481C95.3278 91.3481 95.794 77.5448 95.794 60.6741V30.0001H90.355H84.916V55.4979Z" fill="url(#paint3_linear_963_4)"/>
<defs>
<linearGradient id="paint0_linear_963_4" x1="491.5" y1="0" x2="491.5" y2="151.125" gradientUnits="userSpaceOnUse">
<stop stop-color="#BD00FF"/>
<stop offset="1" stop-color="#38004B"/>
</linearGradient>
<linearGradient id="paint1_linear_963_4" x1="4.885" y1="108.602" x2="4.885" y2="29.9999" gradientUnits="userSpaceOnUse">
<stop stop-color="#9615C1"/>
<stop offset="1" stop-color="#6A068B"/>
</linearGradient>
<linearGradient id="paint2_linear_963_4" x1="57.7161" y1="108.602" x2="57.7161" y2="29.9999" gradientUnits="userSpaceOnUse">
<stop stop-color="#9615C1"/>
<stop offset="1" stop-color="#6A068B"/>
</linearGradient>
<linearGradient id="paint3_linear_963_4" x1="90.355" y1="91.3481" x2="90.355" y2="30.0001" gradientUnits="userSpaceOnUse">
<stop stop-color="#9615C1"/>
<stop offset="1" stop-color="#6A068B"/>
</linearGradient>
</defs>
</svg>
